/* XPM */
static char *hubble_bar2[] = {
/* width height num_colors chars_per_pixel */
"   106    40       44            1",
/* colors */
". c #34465c",
"# c #4c6274",
"a c #3c566c",
"b c #546a7c",
"c c #344e64",
"d c #4c5e74",
"e c #445e74",
"f c #5c6a84",
"g c #44526c",
"h c #54667c",
"i c #44566c",
"j c #647a94",
"k c #3c4e64",
"l c #64728c",
"m c #4c6284",
"n c #546a8c",
"o c #445a7c",
"p c #3c5274",
"q c #3c4a64",
"r c #5c7294",
"s c #445a6c",
"t c #3c5264",
"u c #344a64",
"v c #4c667c",
"w c #5c768c",
"x c #546e84",
"y c #5c6e84",
"z c #344664",
"A c #4c627c",
"B c #3c5674",
"C c #5c728c",
"D c #546a84",
"E c #344e6c",
"F c #4c5e7c",
"G c #445e7c",
"H c #546684",
"I c #445674",
"J c #3c4e6c",
"K c #64768c",
"L c #4c6684",
"M c #546e8c",
"N c #445a74",
"O c #3c526c",
"P c #5c6e8c",
/* pixels */
"cuuuuuuuuuuuuuuuuuuuzu.z....z.uuuqukukkcquuzu.uuuuuuJJBINNdA#hhDDyDfDDDhhvhAAAAAFFeNNNNNIIaIOOOOOOOOJJJcJc",
"JJEkJEJJEkEkukuuuuuuuuuuuuuz.zu.uuuukEJkJJkuqukcqkkkOtOiNFAvhyCyPyyxfhhhAFAFFFFFeNFNINIIiaIOaOgOOOOJOJcJcJ",
"JkJEJkkuJEqEqEukuquukuucuuuuuuuuuuquqcJJkOkkEkJuJcJaJtONGAhHbDyhhHhAAAAFAF#FFeNoNoNIIIBBIBIOIOpOOOJOOOOOJO",
"OOOOJOOJtJJJEJJJcJEqEJcucucuuuuququEqckkEkOOkOJEkOOvNNJNdAFAAdAGdGdGddFedNFoeoNNINIBIBiBIiBIOIiBipiOOOOOOO",
"aOgOpOOOOEOkOJcJEkJEkuqEkckkukuukukuqEJJtOOOOOOJOOONkOONINIdNNNNdNFNNoeNoNNNNIIINIIIaIBgBIaIBiBiBiBIiIIiBI",
"NNNIiBIpOOOOJOJEJJuJuEuuquuckucqcucJcckckJkJtOOOgOtOcOgaOiOBNIININNNNNNNNNBIBBIBBBBBBIIBIIIiIBINNNNNBNsNNN",
"FNNNoNiIBOBOOJEJcJEkuquEuJuuuuuuuuqucuuuEcJkJtOaOOIisNNJIIiOIBIIIBIIIBINBNIBNNBIININNNINIBsBINNIBNNedNNedG",
"AAAAdFNNNNIaBOOOJJcJEuJuquuucuuuuuuuuuuuuuucuEkkJOckcOOBiaIaIsaBiIaIaNIBIBIsBINBNNNNNNNNeNNeeNNNNNNGeAFFFA",
"AHAmAAFAFNNIIaOOOJJcJuuuEuuuuuuuuuu.uz.z.uzuuuucukuNcOJagOIaINNaBIaIBIaIBNIBNNBNNNNNoeFNFFAAAAAhAAFddFAAAh",
"hHhHAAAAGFGNNNIBOOJkEkEJuuuuuuuu.uzu.uuuzuzu.u.zzuuuuJcJOOOiaaaIsIIaIaIBsBBNBNINBIBNNINNNedFFAhHDfDhHFAhAH",
"DvALhmAAAdGeGNNaaOOJJEquEuEuuuuuuuuuuuzuuuzuz.uzuzuuuuuqEJOOpaIaIaNBiIaNBiBNINNNINNINININNNNdFAAHDDyCxPyMf",
"CyDHHvAFAGFFdNNNIiOOOOJJkJcJuccuuuzuuuuuzuuuzuuz.zzzzzzuuJEcJOOOaBaNNaIBiBIaNINNNNNoNNodoFodGNFeAAhDDPCCKK",
"jKCDDAAAAFGeGeNNNNIaOOOOJcJcqEquJcuuuuuuuuuuuuzuuzu.zzzzuuuJckOkOOgOIIBiIIIININoNNNNoodoFNFGFFFFFGAAAhDyKj",
"wwwlyfmAdFdFdFeNNNiIIiOOOOOJJEqcEquukcuuuuuuuuuzuuuuuuuuuuuukcEcJJOOOaINNNNdNNdNoNoNNdoodGFFAGAAAAmAmALLMM",
"MxDDDDDHvFeFeNFNNNNNaIaIaOOOOJJJJEJcJukcqcquuuuuuuuuuuuuEkuJcJkJOtOOpiIIiINodoNNdNGNoNNdodGGFFFGAmAALLHLDM",
"MDHLHvHhmhAeFodNNNINNINaIiIOOOOOOJkEJJEkEJucJucuuuuuuuuuJuJcJJkOOOOOOOaaBIIINNNoIdNNNdGNNodGdGGAFAAmALLHDM",
"PnDLmAmFFAFFedoNdINNNNNNIBIIagpOOOOOtJJJcJcqcuqEqEuuuuuuuJJJtOOOOgOOgOJOgOOiBNNNNNINNNNNNNNNGdNGFGFFAAmHnM",
"MnDLmmGFGeGFoFoGNGeFGGoNeNNNINNiIOOOOOtEJkJJEJuJucJJuEuuJEJEJEJJcJOJkEkJccJOtOOOOBiIiIIIIiIIIINNNdeGFFAmLP",
"MLmGGeGNGdoNeNdFFFGdFAFFGdNNNNIBIIOgpOOJOJJOkEJcJJuuJuJEkcJkEkcEkccccuccuuucuckckJJOOOOOOOOOOOgOgBIINNGFLM",
"CpipgOIIdNNddFAAvAAhAAAAFFFeFNNNNNIBiBOOOOOOJOJJkEkEkuuuuuuuuuuucuuuuuu.u.uz....z.uuukkkkukuquuuuuuuuuuuur",
"JBINNe#AAhDDDyDfbfhvhAhFAAFFGdNNNINIaIOOpOOOOOJOEJkuJEququuquququuuuuuuuzu.u......zuuuuukukkcuqu...u.quu.J",
"OOiNFAHhylyPyyyDHvhAFAFAFdGedoNNINaIgaIagOOOOJOJJkEJEqcEJEJEJEEEcqcquu.uuuuuuuuuzz.u.uquuJcJkJkkkukkukuktO",
"kONGAAbhDyhhHhAAhFAFAdFFeodIoNIIIBIBIBgpOagOOOOOOOJOJOJJcJJJuJkuJuJukucuuucuucuuuuuuuuuuqukJJkOJcJcJcJkJak",
"NJNdAFAAdAdGdGddeFeedGeGNIoINIBIBIBiIBIaIIOBOaOOOOOOOOOOOJOOJOJJJJcJcJJJEJucucucuuuuuuqukukckEkJOkJJJuOOhN",
"OONIdINdNNNNdFNNNeNoNNINININIBIaIagBIagBiBIiIBiIiBIiBOagOOOOOOEOJOJJEkEqEkuJuccckukqukukuqEJJtOOOOOOOOOONc",
"OgaOiOINBNNNNINNNNNINBIBIBBaIBIBIIBIIIIIBNNBNNNBNsNNNNNNIIBIOOOOOJOEJJEJuJuuuJuqccucqcuEcJckckJtJtOOOOOOtJ",
"NNJIBiaIBgBIIINIIINBNINBNBIIBNNNINNIBsBiNINNNNedNNedNFNNNNNIIBOaOOJEkEkJcquJuuuuuquuuuquucuuqEcqEkOtOOOiIa",
"OOaIiaIaNBiBIaBBBIBIIBIBINBNNNNNNoNeNoeeoNNNNNGeAFFAAAAAAFFNNNNIBBOOOkJEJEuuEqEqucuuuuuuuuuuuuucukckOJOctc",
"OJagOIaIsNaIaIIiBIBIBNNNNBNNNNoNNFNFdAAhFAAAAFddFAFAHAhmAAAFANoNIiBOOOEkEkuJuuuuuuuuuuuu.u.zz.uzuuuuukukIc",
"kEJOOOaBiBsIIBiBIaNaNBIBNINBIBNNINNNFedFAhDDfDhHAAAhvHHhHAAAAAFeNNNIBOOJJEqEuEuuuuuuu.u.uzuuuzuzuz.uzzuuuc",
"uuuJJOJOOBiBsBNiBIaBiBiNNNNINNINNIINNNodFFAHDDyCDPyPDDvALhmAAFGFeeNNaiOOJJEkqcuEuuuuuuuuuuu.uuuzu.zu.zzuzu",
"zzzcuEkOOOOOaBsBNiIIaIBNINNNNNNNoNoNFodeNFeAAhDDPwCKKCyDHHAAAAAdGFNNNBiaOOOJEJJcJuEcuuuzuuuuuzuuuuuzuzzzzz",
"zuzuuuEkEtOOOgOIaIBIIIININoNoNoNFNFFNFGFFFFFGAAAhDyKjjKCDDAmAFGAedGNNNIIagOOOJcJcuJuuJcuuuuuuuuuuzuu.uuzuz",
"uuuuuuuccJcJJOOOIINNNNdNNdNNNoNNNFNFGFFAGAAAAmALALLnCCwwlyfvAFeFdodeNNNsIIaOOOOOJJJukEquukcuuuuuuuuuuuuuuu",
"uuuJEqJkJcJOtOOOaIiIINNFNoNFNeoNoNGdGFGFFGAAmAALLHLDMxMDDDDDhvFdGdodNNINNaIiaaOOOOkEJJEJEkuJcukuuuuuuuuuuu",
"uuucqEkEJkOOOOOOgBaiIIINNNNNoNdNNdNNNedGGFGFAAmALLHDMMDhLHvHmHhAdGdoNNNNNNINIIIiOOOOOOJkJJEJcJEqcEcuuuuuuu",
"uuuqEJkJOOOOgOOOOJOOOOiBNNINNNNINNoNdIodNeFGFGFAAmHnPMnnLAmAFFFAFeFNdNNNNNNNNIaIIagpgOOOOOkJJcJcquJuEkEuuu",
"quuEJJJOEJJkJOJkOkEkEtJOOaOiOIiNIIiIIIIIINNNNdGFFALLMPnHLmmGFGeGGFeoGoeodGGNNeNNNINNIaOOOOOOcJJJEJcqEqukJu",
"uJEkEcJckcEccccuucuuuucuukcJkJOOOOOOOOtOOOgaIIINNGFLPMLAGGNGoNFNNNFdFdFFGAFGFGdNNNNIBIIOOOOOJOJJOkEJcJEqEu",
"Euuuquuuuuuuuuuuuuuu.u.u...z.uuuqkkkukuuquuzuuuuuuuzrMIpBgpiIdNdGddAAvAAhAhAAFFFGFNNNNNIIBIOOOOOOJOJJJEkEk"
};
