/* XPM */
static char * as1_5_shade2_xpm[] = {
"24 20 5 1",
" 	c None",
".	c #000000",
"+	c #212121",
"@	c #575757",
"#	c #7F7F7F",
" .                      ",
"+.@                     ",
"+.@                     ",
"+.@                     ",
"+.@                     ",
"+.@     ###########     ",
"+.@     ###########     ",
"+.@     ###########     ",
"+.@                     ",
"+.@                     ",
"+.@                     ",
"+.@                     ",
"+.@                     ",
"+.@                     ",
"+.@                     ",
"+.@                     ",
"+.@                     ",
"+.@                     ",
"+.@                     ",
"+.@                     "};
