/* XPM */
static char * as1_5_kill_default2_xpm[] = {
"24 20 6 1",
" 	c None",
".	c #000000",
"+	c #212121",
"@	c #575757",
"#	c #7F7F7F",
"$	c #525252",
" .                      ",
"+.@                     ",
"+.@                     ",
"+.@                     ",
"+.@                     ",
"+.@     #$       $#     ",
"+.@     $#$     $#$     ",
"+.@      $#$   $#$      ",
"+.@       $#$ $#$       ",
"+.@        $#$#$        ",
"+.@         $#$         ",
"+.@        $#$#$        ",
"+.@       $#$ $#$       ",
"+.@      $#$   $#$      ",
"+.@     $#$     $#$     ",
"+.@     #$       $#     ",
"+.@                     ",
"+.@                     ",
"+.@                     ",
"+.@                     "};
