/* XPM */
static char * mini_redhat_xpm[] = {
"16 16 12 1",
"       c None",
".      c #39CE42104210",
"X      c #631863186318",
"o      c #084208420842",
"O      c #A528000018C6",
"+      c #CE7200002108",
"@      c #631800001084",
"#      c #A528A528A528",
"$      c #DEF642106318",
"%      c #B5ACC630C630",
"&      c #F7BCF7BCF7BC",
"*      c white",
"    .X.oooX     ",
"   XXooooooo.   ",
"  .ooO++O@oOo.  ",
" Xooo@@@+++@ooX ",
" .oooO@OO+++ooo ",
" o++@@O+++++@ooo",
"#oO+O@ooO+++@@oo",
"Xoo++++ooO+OO+Oo",
"XooO$O++++++++Oo",
"Xoo%&XO+++++++oo",
"#X..&&#@OO++O@oo",
" &&&%&&&&&&%ooo ",
" &&&&&&&%X&#ooX ",
"  &&&&&&&&%.&&& ",
"   &&&&&&&X%**  ",
"     &&&&&&*    "};
