/* XPM */
static char * mini_maximize-vert_xpm[] = {
"14 14 2 1 0 0",
" 	c None",
".	c green",
"     ...      ",
"    .....     ",
"   .......    ",
"  .........   ",
"  .. ... ..   ",
"     ...      ",
"     ...      ",
"     ...      ",
"     ...      ",
"  .. ... ..   ",
"  .........   ",
"   .......    ",
"    .....     ",
"     ...      "};
