/* XPM */
static char *mini-exp-windows-full[] = {
/* width height num_colors chars_per_pixel */
"    18    18        3            1",
/* colors */
". c #414141",
"# c #b6b6b6",
"a c #828282",
/* pixels */
"#################.",
"################..",
"##aaaaaaaa######..",
"##aaaaaaaa#aaaa...",
"##aaaaa######.a...",
"##aaaaa#aaaaa.a...",
"##aaaaa#aaaaa.a...",
"###########aa.....",
"###aaaaaaa.aa.aa..",
"###aaaaaaa.aa.aa..",
"###aaaaaaa....aa..",
"###aaaaaaa.aaaaa..",
"###aaaaaaa.aaaaa..",
"###aaaaaaa.aaaaa..",
"###........aaaaa..",
"##aaaaaaaaaaaaaa..",
"#.................",
".................."
};
