/* XPM */
static char *mini-shrink-windows[] = {
/* width height num_colors chars_per_pixel */
"    18    18        3            1",
/* colors */
". c #b6b6b6",
"# c #414141",
"a c #828282",
/* pixels */
".................#",
"................##",
"..aaaaaaaaaaaaaa##",
"..aaaaaaaaaaaaaa##",
"..aa##########aa##",
"..aa#aaaaaaaa.aa##",
"..aa#aaaaaaaa.aa##",
"..aa#aa...#aa.aa##",
"..aa#aa.aa#aa.aa##",
"..aa#aa.aa#aa.aa##",
"..aa#aa####aa.aa##",
"..aa#aaaaaaaa.aa##",
"..aa#aaaaaaaa.aa##",
"..aa#.........aa##",
"..aaaaaaaaaaaaaa##",
"..aaaaaaaaaaaaaa##",
".#################",
"##################"
};
