/* XPM */
static char * mini-move_xpm[] = {
"16 14 3 1",
" 	c None",
".	c Green",
"X  c Black",
"       .        ",
"      ...       ",
"     .....      ",
"     XXXXXX     ",
"  .         .   ",
" ..X        ..  ",
"...X        ... ",
" ..X        ..X ",
"  .X        .X  ",
"   X        X   ",
"     .....      ",
"      ...X      ",
"       .X       ",
"       X        "};
