/* XPM */
static char * mini_plot_xpm[] = {
"16 14 5 1",
" 	c #83837D7D7E7E",
".	c None s None",
"X	c #FFFFFFFFFFFF",
"O	c #000000000000",
"o	c #51515151FBFB",
"         .......",
" XXXXXXX .......",
" XXXXXXX X.....o",
" XOXXXXX .....oo",
" XOXXXXXXXX..oo.",
" XOXOOXXXOOOoo..",
" XOOOOOXOOOoo...",
" XOOXXOOOXoo....",
" XOXXXXOXoo.....",
" XOXXXXX .......",
" XOOOOOOOOX.....",
" XOXXOXXOXX.....",
" XXXXXXXXXX.....",
"................"};
