/* XPM */
static char * mini-resize_xpm[] = {
"16 14 3 1",
" 	c None",
".	c Green",
"X  c black",
"............... ",
"...............X",
"..XXXXXXXXXXX..X",
"..X     ..   ..X",
"..X     ...  ..X",
"..X     ..X  ..X",
"..X     .X   ..X",
"..X          ..X",
"..X.....     ..X",
"..X ...X     ..X",
"..X  .X      ..X",
"...............X",
"...............X",
" XXXXXXXXXXXXXXX"};
