/* XPM */
static char * mini-stick_xpm[] = {
"16 12 3 1",
" 	c None",
".	c yellow",
"X  c Black",
"...............X",
"...............X",
".             .X",
"...............X",
"...............X",
".             .X",
"...............X",
"...............X",
".             .X",
"...............X",
"...............X",
"XXXXXXXXXXXXXXXX"};
