/* XPM */
static char * mini_scroll_arrows_xpm[] = {
"16 14 2 1",
" 	c None", 
".	c #000000000000",
"       .        ",
"      ...       ",
"      ...       ",
"     .....      ",
"    .......     ",
"    .......     ",
"                ",
"                ",
"    .......     ",
"    .......     ",
"     .....      ",
"      ...       ",
"      ...       ",
"       .        "};
