/* XPM */
static char *hubble_bar1[] = {
/* width height num_colors chars_per_pixel */
"    49    51       54            1",
/* colors */
". c #0c0a0c",
"# c #44463c",
"a c #2c2a24",
"b c #3c3a34",
"c c #1c1a14",
"d c #64625c",
"e c #54564c",
"f c #34322c",
"g c #24221c",
"h c #4c4e44",
"i c #14120c",
"j c #44423c",
"k c #342e24",
"l c #443e34",
"m c #241e14",
"n c #3c362c",
"o c #4c463c",
"p c #645e5c",
"q c #2c2624",
"r c #1c1614",
"s c #2c2e24",
"t c #3c3e34",
"u c #1c1e14",
"v c #5c564c",
"w c #34362c",
"x c #24261c",
"y c #544e4c",
"z c #14160c",
"A c #7c7a74",
"B c #4c4a44",
"C c #5c5a54",
"D c #140e0c",
"E c #444644",
"F c #2c2a2c",
"G c #3c3a3c",
"H c #1c1a1c",
"I c #6c625c",
"J c #343234",
"K c #242224",
"L c #4c4e4c",
"M c #141214",
"N c #342e2c",
"O c #443e3c",
"P c #241e1c",
"Q c #3c3634",
"R c #4c4644",
"S c #2c2e2c",
"T c #3c3e3c",
"U c #1c1e1c",
"V c #5c5654",
"W c #343634",
"X c #242624",
"Y c #54524c",
"Z c #141614",
/* pixels */
"MiiMzHZXccHcCXcfhqfUcHHlptrZcHHuHrzMzrcUHUUPUUHcH",
"i.iZZrcUPUcZzYPcQFBNgJgaf#bggqgUuUHcrcUKxPUHUcUHc",
"MMMZrHcHUHcrZNjwPaJNgKbwmfBNXSxPurugHgqqXaccHcccZ",
"ZZZcZcHccHZrccuQRbOhNuNpOYjaaXnTKcHUaXfNSaXrZZZZr",
"ccHHUUHHZccZHPUDfqBbBUmbvAVacasQqxuqNXNfbJQcMMZZr",
"HcUUPUUUZrZHZcDccaN#NfgaIYlBgrgQwfqXQaXfNffNiZMMZ",
"cHUPUPHccZrrcrUcZmZQfajkNeYqtqcsNSbsqUfSabFWqMiMr",
"HHuHUUUHZcZZrHrccPgubacBqbYywBaakgNOWNqgfqfbfUZZc",
"cHHcUuHcHZcrZHcZMMgMcSkf#jfOBNWfbJgQbWNXHfgFWarcH",
"HcUcHPuHZrZHccPrrziUczUQQQjNOBbOfOtNNQaxkgNqXaaHU",
"HUcUHHHccZcZHUZPZZriUcggbabOQjQOJnFbfxkaUgUsUPKgH",
"uHUcUuUUHHccUcUccZirUKqgJPgOjOTBbfqaffHqgccPHUUUU",
"HUHPHuHcccHcUHcHZrZcHPaPQKDXwvwfjbWXgwgucZcUcHcUP",
"UPuUcPHuHUcHUPUHzZrHUcgQqffamfBBJGglfaJgUUHcHuHUH",
"HHHUHucHccHUmUUurZcUcZcNEraXcfQ#lfxJjqgZcPUuUcHcc",
"cuHcHrcZcHcUUUPUHHZccHciNqXkSPoaOykgNwHPUPUPUccZZ",
"rHcHcHZHcZHuUPUUccZZrHcKrnqZfNEagtfKxScUUUPUcHrMZ",
"ZZuHcHccHcHcUUPHcrZHcHrrqctqgJNBNslwrPUUgPgPHrZMi",
"cHHcHcHccHcHuPHcZZrZcUugcgkRcqugRkbbPcUPUUUHHZZiZ",
"HcUHuUHUHZcHcHuHcrZZcHKPUUcZXQfcbNSfcPUUHPUUccrZr",
"UHUuHUcHccHccHcHZZrZcUPUHPcccPjgxOtgjWPccZcrrZZHU",
"UPUPHUHZcHcZHZccHccccHUUHrcUUrXvagOOUQaUiZUZZrccU",
"HcHcHccHHcUHcHZHcHHHUUcHuZZcPgUQQNmhQbWQHZirccHUU",
"cHuHcHcccUcUccHcUuUUcHrcHHHccHucEJbgPbbRxi.ZZcHUH",
"ZHcHcZHcccccHcHHUUPUPHUrZccZrcgHuwTBUUXjbgzrzcUPZ",
"cZcZHUuHcZZrZcuUcUPUUcUcZiZcZcrUPuMcjuiXB#UrZgUUU",
"OZrHcHUcZZiZrcHHUHUPUHcHZMiDZZcZXccHcVxcfLqfUcHPl",
"#bggXgUHuHcrcUgqUmUHuHHcZi.iiZHcHPUcZZygcQaRNKNgq",
"fBNXkXPucHgHgqXqXHcHcrcZZMiZZZcHcUHccZkjQPaWNgKbw",
"YjaaqWtKruUaXfNSaqZZrZZrrZZZrHcHHcHZrccuWRbOhNuNd",
"AvacXkQqxHqNxffbWwrMMZZZrcHHHHUHcZcHZHPPDfqBbRUmb",
"eOBgrxQwfqXnFXfNNJfiZMMZZcHuPUUUUZrZcZcDcuqf#kfqa",
"YeqtqcsNsbsqUfSabFQqMiMrZHHUUPUPcHZrZrHHcrUrQfaja",
"byywBaqkKNOWNqgfqfbfUZZcHcHcPUUUHZcZcHcrcrugUbacB",
"jfOBNWfbWgQbWNXHfgFWarcHcHcHHcUcHcZrZrHcZMMgicSkf",
"QjNOBbOfObNNQaxkgNqXaaHuHUHuHuHUcZrZcZcUrczDUczUQ",
"abOQjQOfnFbfxkaUgUsUPKgHUcHHuHUcHcZHcHHcUZrZiUcgg",
"PgOjlTBbfqaffHqgccPHUUUUUHUuHUPHuHHZcHuHccZirUKqg",
"KDXwVwfjbWXgwgucZcUcHcUPHuHUPcUUHccuHUcHHrZZcUPaP",
"ffamfBBWGgOfaJgUUHcUcUHuHUPuHcPcHuHHcUPUciZrHuHPb",
"caqcfQ#lfgfjqgZcPuUcHccHcHHUHUcccHcuUPUgHcZcUcccN",
"qqsSP#alyNPfwHPUPUPUcrZZccHcHccHZccHHUUUUcHcHrHrM",
"QqznFRagtwgXScUUUPUcHcMMZccHuHcZHcHcUmPUUHrZZcHcg",
"ctqPQNBNsOfrmUUgPgPHcMMiZrZcHcHHcHcHcUUPHcZZcZHrr",
"gkRcXugRkbbPcUPUUUUHZZZMrZUHcHccHcZcHuHUcrZrZcUmK",
"UcZXQfcbfaWcPUUHPUUcrrZcHcHuHUUHUcHcHcHuHcZZrcUgU",
"UHccPjgxObgjWPccZcrrZZcHuHUUHuHUcHZcHccHccZZrHHgU",
"rcuUrXvagOOUQFUiZUZZrcUUUUPUcUHcHcHccHcHcHcrccHUU",
"ZrHPUmQQNghQbWQcZirccHUHcHcHPcHcZHcUHZHZHcHuHUUcH",
"UcZcUUcEfbgPbbRXi.ZZccUcHrUcHcHccUcUcHcccHUUUcHrc",
"cccZcgHuWtBUUXjbgzrzcUPZcZHcHcZHcccccccHHUUPUUHUr"
};
