/* XPM */
static char *hubble_wharftile[] = {
/* width height num_colors chars_per_pixel */
"    64    64       74            2",
/* colors */
".. c #2c3e5c",
".# c #546e84",
".a c #6c86a4",
".b c #3c566c",
".c c #647a8c",
".d c #4c627c",
".e c #344a5c",
".f c #64728c",
".g c #5c768c",
".h c #7492ac",
".i c #6c7a94",
".j c #4c6a84",
".k c #4c5e74",
".l c #3c526c",
".m c #5c6e84",
".n c #445e74",
".o c #64829c",
".p c #54667c",
".q c #3c4a64",
".r c #7c8eac",
".s c #2c465c",
".t c #748eac",
".u c #44566c",
".v c #5c7a9c",
".w c #546e94",
".x c #748aa4",
".y c #4c668c",
".z c #344a6c",
".A c #849abc",
".B c #4c667c",
".C c #6c829c",
".D c #5c7294",
".E c #445a7c",
".F c #647a9c",
".G c #34425c",
".H c #54728c",
".I c #6c8aac",
".J c #344e64",
".K c #5c769c",
".L c #546a84",
".M c #5c728c",
".N c #54668c",
".O c #3c4e64",
".P c #34465c",
".Q c #445a74",
".R c #7c96b4",
".S c #647e9c",
".T c #2c425c",
".U c #546e8c",
".V c #6c86ac",
".W c #3c5674",
".X c #647a94",
".Y c #4c6284",
".Z c #344a64",
".0 c #64768c",
".1 c #5c7694",
".2 c #6c7e9c",
".3 c #4c5e7c",
".4 c #3c5274",
".5 c #5c6e8c",
".6 c #445e7c",
".7 c #6482a4",
".8 c #546684",
".9 c #445674",
"#. c #547294",
"## c #748aac",
"#a c #344e6c",
"#b c #4c6684",
"#c c #7c92b4",
"#d c #6c82a4",
"#e c #546a8c",
"#f c #3c4e6c",
"#g c #344664",
"#h c #647ea4",
/* pixels */
".O.l#f.l.l.l#f.l.l#f.l#f#f#a.O#a.O.z.Z.Z#f.Z.Z.Z.Z.Z.Z#g.Z.Z.Z#g.Z#g#g#g.Z.e.Z.P.s#g.s.P.s.P.s.P.T.G.T.T.T.T.T.G...T.G..........",
".J.l.l.l#f.l.J#f.l#f#a.l#a.O#f.J#f.J#f.O#a.O#a.q.Z.Z.Z.Z.Z#g.Z.Z#g.Z.Z.s.Z.P.Z.Z.s.P.P.s#g.s#g.T.P.T.T.G.T.G.T.G...G.T...G.T.G..",
".Q.Q.u#a.l.u#f#a.l.O.z.O#f#a.O#f#a.O#a#f.Z#f.Z#a.Z.q.Z.Z.Z.Z.Z.Z.Z#g.Z#g.Z.s.Z.P.Z.s.Z.P.s.P.s.P.s.G.T.G.T.T.T.G.T.G...G...G....",
".Z.l.l.l.u.l.l.l.l.l.l.J#f.J#f#a.O#f.O#a.O#a.O#a.q#a.Z.z.q.Z.Z.Z.Z.Z#g.Z.Z.Z.s.P.Z.s#g.s.Z.s.s#g.s.P.P.P.T.G.T.G...G.....G.T...G",
".O.l#f.l.l#f.u.l.l.u.b.l.O#f#f.J#f.J#a.q#a.q#a.q#a.q#a.O.Z#a.q.Z.Z.Z.Z#g.s.Z.Z.Z.P.Z.s#g.s.Z#g.s#g#g.G.P.T.s.T.G.T.G...G...G...T",
".Z#f.J#f#f#f.O.l.l.l.l.b.l.b.l.l#f.O#f.O.J.J.J.O.J#f.O.O.q.Z.Z.Z.Z.Z.s.P.Z.P.P.P.s.P.Z.P.Z.P.P#g.P.P#g.P.G.T.G.T.G.T.T...T.T.G.T",
".Z.Z#g.Z.J.Z#a.O.J.l.l.l.l.l.l.l.l.J.l.J.J.q.Z.J.q.O#a#f.Z.Z.q.Z.q.Z.P#g.P#g.s#g#g.P.P#g.P.s#g.s.P.s#g.s.s.G.s.G.T.T.G.T.T.T.T.T",
"#g.s.P#g#g.Z.Z.Z.J.e.J.O.J.O.J.l.l.l.O.J.q.Z.Z.Z.Z.q.q.O.Z.Z.Z.e.Z#g.Z.e.Z.Z.P#g.P.s#g.s#g.Z#g.P#g#g.s.P.G.P.s.P.s.P.T.T.G.T.G.T",
"#g#g#g.s.Z#g#g.e.Z.Z.e.e.Z.Z.O.e.J.q.J#f.O.q.q.Z.q.Z.q.q.Z.q.Z.q.Z.Z.Z.Z.Z.Z.Z.P.Z#g.P.Z.P.P.P.s#g.P.s#g.s.P.G.s.G.s.G.T.T.T.T.G",
".Z.Z.Z.Z#g.Z.s.P.Z.P.Z.P.Z.P.P#g.e.Z.Z.Z.q#f.q.O.q.O.q#g.J.q.Z.Z.Z.e.Z.q.e.q.Z.Z.Z.Z.Z.e.Z.Z#g.Z.P#g.P.P#g.s.P.P.s.P.P.s.G.P.G.T",
".Z.Z#g.Z.Z.Z.Z.Z.P#g.s.P#g.s.P.P#g.P.Z.q.Z.Z.q#a.O#a.q.J.q.Z.Z.e.q#g.Z#g.Z.Z.q.Z.q.Z.Z.Z#g.e.Z.P#g.s#g.s#g.P#g.P.P.T.T.P.s.T.s.G",
".Z.Z.Z.Z.Z#g.Z#g.Z#g.e#g.P#g.P#g.s.P#g.P.Z.P.Z.Z.O.J.O.J.q.J.q.Z.Z.q.Z.e.q.Z.Z.q.Z.q.Z.q.Z.Z.Z.Z.e.Z.P#g.P#g.s#g.s.P.P.T.P.G.P.T",
".Z.Z.Z.Z.Z.Z.Z.Z.P.Z.P.Z.Z.e#g.P#g.P.s.P#g.P#g.Z.Z.J.J.J.O.O.J.q.J.Z.q.Z.e.Z.e.Z.J.Z.e.Z.Z.q.Z.Z#g.e#g.e.s.P#g.P.P.T.P.T.P.T.s.G",
".q.z.Z.Z.q.Z.Z.Z.Z.Z.Z#g.e.Z.Z.s.Z.s.P#g.s.s.e.P.e.Z.Z.Z.Z.O.Z#f.O.O.O.J.q.Z.q.P.q.Z.Z.q.e.Z.e.q.Z.Z.Z.Z#g.P#g.s.P#g.P.P.s.P.G.s",
".J.Z.q.z.Z.Z.Z.Z.Z.Z#g.Z.Z.Z.e.Z.Z.Z.Z.s#g.P.s#g.Z.P.Z.e.Z.Z.q.Z.O.z.O.q.J.q.J.Z.Z.P.Z.Z.Z.q.Z.Z.Z.q.P#g.P#g.P#g.P.s#g.P.P.s.G.s",
".O.z.Z.Z.Z.Z.q.z.q.Z.Z.Z.Z.Z.Z.Z.Z.P.Z.Z.s.Z.Z.P.s.P.s.P#g#g.Z.Z.q.J#f.J#f.q.J.q.Z.q.e#g.Z.e.Z.Z.P.Z.Z.Z.Z.Z.Z.P#g#g.s#g.T#g.s.G",
"#f.Z.O.z.q.z.Z.Z.z.Z.q.z.Z.Z.Z.e.Z.Z.e.Z#g.Z.s.Z.P.s.P.s.P.P#g.e.Z.Z.Z.q.Z.J#f.O.J.q.Z.q.P#g.P.Z.Z.q.Z.e.Z.P.Z.Z.P.P#g.P.P.P#g.s",
"#f#a.O.z.J.O#a.O.O#a.Z.J.Z.Z.Z.Z.Z.Z.Z#g.Z.Z#g.Z.Z.Z.s.P#g.s.P#g.P#g.P.Z.q.Z.q#a.q.J.O.Z.Z.Z.Z.Z.Z.e.Z#g.Z.Z.Z.P.Z#g.e#g#g.s.P.P",
".l#f#f.O#f#a.q#a.Z.q#a.q.Z.J.Z.Z.Z#g.Z.Z.Z.Z.Z#g.e#g.Z.Z.s.P#g.s.P.s#g.P.Z.Z.Z.q.O#a.q.J.q.Z.q.e#g.P#g.P.Z.P#g.Z.P.Z.s#g.P#g.s#g",
".l.l.l.l.l#f.l#f#f#a.O.z.O.z.q.z.Z.Z.Z.Z.Z#g.Z.Z.Z.s.Z.e#g#g.P.G.s.P.P.s.P.P.P.Z.Z.Z.q.Z.O.O.Z.Z.e.Z.P.Z.P.Z.Z.P.Z.P.Z.e#g.P#g.P",
".9.l.l.l.l.l.l#f.O#a.O#a.Z.O.z.O.Z.z.Z.Z.Z.Z.Z#g.Z.Z.e.s.Z.P#g.s#g#g.s#g.P.s#g.Z.e.q.Z.Z.Z.Z.q.Z#g.Z.Z.e#g.P.P#g.Z#g.e#g.e.s#g.P",
".Q.Q.Q.Q.W.9.l.b.l.l#f#f#f#f#a.z.q#a.q.z.Z.Z#g.Z#g#g.Z#g.Z.e.Z.P.Z.P.e#g.s#g.P.s.P#g.e.Z.q.Z.Z.O.O.Z.q#g.e.Z#g.s.P.P#g.Z.Z#g.e#g",
".n.k.Q.Q.k.Q.9.9.9.b.l.l.l.l#f.O#a.O.z.J.q.Z.Z.Z.Z.Z.Z.Z.Z#g.s.Z.s.Z#g.s.Z.s.P.s#g.P#g.P.e.Z.Z.q.Z.q.Z.Z.Z.P.P.Z.P#g.Z#g.e#g.Z.P",
".d.d.d.3.d.3.3.n.Q.Q.Q.Q.9.l.l.l#f#a#f.O.z.Z.Z.Z.Z.Z.Z.Z.Z.e.Z.Z.e.Z.e#g.e#g.s.P.T.s.T#g.s.P#g.e.Z.Z.J.q.Z.q.e#g.s.P.s#g.P#g.P.Z",
".8.d.8.B.8.d.d.d.d.d.3.n.Q.Q.9.b.u.l#f#f#a.O.z.Z.Z.z.Z.Z.Z.Z.Z.e.Z.s.Z.s.Z.P.Z.s#g.G.s.G.T.P.s#g.P.Z.q.Z.J.q.Z#g#g#g.P.P.s.Z.P#g",
".B.8.p.8.8#b.p#b.8.d.d.d.3.3.6.Q.9.b.l.l.l#f#f.O#a.q.Z.Z.Z.Z.e#g.Z.e#g.e.Z.s#g.s.P.P.s#g.P.T.P.T.P.P.Z.e.q.Z.Z.Z.e.Z.e#g#g.P#g.P",
".m.8.B.p#b.8.8.8.p.8#b.p.d.B.d.k.3.Q.Q.u.b.l.l#f.O#a.O.Z.Z.Z.Z.Z#g.Z.s#g.Z.Z.e#g#g.P#g.P.s#g.T.P.T#g.P#g.Z.e.q.Z.Z.Z.P.Z.s.P.s#g",
".g.M.5.m.L.L.L.8.L.L.8.8.L.p.p.B.B.d.n.Q.Q.9.b.l.l#f#a#f.z.Z.Z.Z.Z.Z.Z.Z.Z.P.Z.Z.e#g.s.P#g.P.P.s.G.s.T.P.s#g.e.Z.q.Z.e.Z.P#g#g.P",
".i.X.c.0.5.#.L.L.8.L.L.L.L.L.B.p.B.p.d.d.Q.Q.Q.9.l.l.l.O.J#f.Z.Z.Z.Z.Z#g.Z.s.Z.e.s#g.P.s.P.s#g.G.T.G.s.G.T.G.s#g.e.Z.Z.Z.Z.e.P.s",
".U.g.0.v.i.c.f.#.L.p.L.L.p.L.L.8.p.p.d.d.d.d.n.Q.Q.9.u.b#f#f#a.O.z.Z.Z.Z.Z.Z.e.Z#g#g.P#g#g.G.s#g.s.G.s.G.s.T#g.P.Z.P.Z.P.q.Z#g#g",
".U.#.U.m.M.f.g.0.0.M.L.L.L.L.L.L.B.8.B.p.B.d.k.k.n.Q.Q.b.l.l#f.J.q.z.Z.Z.Z.Z.Z.P.s.Z.Z.P.s#g.P.s.G.s.G.s.G#g.T.P#g.P.Z.Z#g.q.P.q",
".#.5.U.#.L.U.5.M.M.M.M.m.L.L.p.L.8.8.p.8.p.B.d.d.k.n.Q.Q.9.l.l.l#f.O#a.O.Z.J.Z.Z.Z.Z.e#g.P#g.P#g.s#g.T#g.T.P.T.T.T#g.P.P#g.P.q#g",
".5.U.5.5.U#e.L#e.m.5.5.M.5.L.L.L.8.B#b.B.8.d.d.d.d.3.n.Q.Q.9.u.l.l.l#f.J.O.Z.Z.e.Z.Z#g.P.s#g.s#g.G.s.G.s.G.s.G.s.G.s.P.P.P#g.P.q",
".w.U.M.w.U.5.U.5#e#e.m.L.U.5#e.L#b.8.8.8.d.8.B.d.d.3.3.Q.Q.Q.9.W.l.l#f#f#f#f.J.Z.Z.Z.Z#g.Z.P#g.P#g.P.s#g.s.G.s.G.s.G.T.T.G.G.P#g",
".5.U#e.U#e.U.w.U.U#e#e#e.m.L.L.L.L#b#b#b.p.Y.d.d.d.d.k.6.k.Q.Q.9.9.b.l.l.J#f.Z.q.J.Z.Z#g.Z.P.Z.P.s#g.G.s.G.s#g.P.T.P.T.G.T.G.G#g",
"#..M.5.U.5#e#e.L.N.U.5.U#e.U#e#e#e#e.L#e.p.8.d.8.d.d.3.k.6.3.Q.Q.9.9.l.l.l.l#a#f.z.q.Z.Z.Z.Z.e#g#g.P.P#g.s#g.G.s.P.T#g.s.G.G.T.G",
".D.D.D.M.5.M.U.U#e#e.j#e.U#e.U#e.L#e.j.8#b.8#b.p.Y.d.Y.d.3.k.Q.Q.Q.9.b.9.l.l#f.O.J#f.Z.q#g.Z#g.e#g.s#g.s#g.P.s.G.s.G.s#g.G.T.G.G",
".1.M.D.D.1.D.5.U#e.L#e#e#e.L#e.L#e.L#e#e#e.j.8#b.Y#b.Y.d.d.6.3.E.Q.Q.9.9.l.l.l#f#f.J#f.J.J.e.Z.Z.e.Z.s.P.P.G.s.G.s.G.s.G.s.G.G.T",
".U.5.D.D.D.1.D.1.M.w.U#e.L.j#e.j.N.j#e.L#e.N#e#b.8#b.B.Y.d.3.3.6.Q.Q.Q.Q.b.9.l.l#f#f#f.Z.O.Z.Z.Z.Z.P.Z.s#g.s#g#g.T#g.T.P.G.G.T.G",
".y.j#e.U.U.U.M.D.D.D.M.5.U#e.L.N.L#b.N.j.N.j.L#e#e.8#b.Y.Y.d.3.3.3.E.Q.Q.9.9.l.l.l.l.O#f#a.O.J.e.Z.Z.Z.Z.P#g.T.P.s.G.s.G.s#g.G.G",
".y.Y.y#b.N.L#e.U.M.D.D.D.H.5.w.U#e.L#b#b.8.y.L.j#e#b.8#b#b.Y.Y.6.d.6.Q.Q.Q.9.9.b.l.l#f#a.O.J.Z.O.Z.Z.e.Z.P#g.P#g.s#g.P.T#g.G.T.P",
"#e.j.N.y#b.y#b.N#e.U.U.U.D.D.M.5.U#e#e.8#b#b#b.8#b.8.j#e.8#b#b.Y.d.d.6.E.n.W.Q.W.W.l.b.l#f#f#f.Z.Z.Z.Z#g.Z.e#g.P#g.G.s.P.G.P.G.G",
".w.w#e#e.L#b#b#b#b#b#e#e.U.U.U.D.U.U#e#e.8#b#b.Y#b#b.N#b.L#b.8#b.Y.d.6.d.n.6.Q.9.W.W.W.b.l#a.O#a.q.Z.Z.Z.Z#g.Z.P.s#g#g.s.G.T.G.s",
".D.D.H.w.U.U#e#e#b#b#b#b.8.L#e.U.5.5.U.U.U.L.N.8.Y.Y#b.8#b.N#b.8#b#b.B.d.3.6.6.n.Q.9.b.W.l.l.l#f#f#a#f.Z.Z.e.Z.Z#g.P.s.G#g.G#g.G",
".K.1.1.1.w.5.w.U.U#e.y.y#b#b.8#e.U.U.5.U.M.U.L#b#b.Y.Y.Y.j.y.j#b.L#b#b#b.d.6.d.Q.E.W.Q.W.l.l.l#f.J#f.J#f.Z.Z.Z.P.e#g.P.s#g.P.G.G",
".F.F.K.K.D.1.D.D.5.w.U#e#e.y.y.Y.Y.j#e.w.U.5.U.U.L.L#b.d.Y.Y.8#b#b.8#b#b#b#b.Y.6.6.E.Q.W.9.W.l.l.l#f.O.J.O.q.Z#g.Z#g.P#g.P#g.s.P",
".S.F.F.F.v.K.1.D.D.D.w.5.w#e.L.y.y.N.y.8.U.U.5.H.5.U.L.j.Y#b.Y.Y.Y.Y#b.8#b.Y.d.Y.d.6.E.E.W.W.b.l.l.l#f.O#a.Z.O.Z.e.Z.P#g.P.s#g.P",
"#d#h#h.F.F.F.F.v.K.1.D#..D.w.U#e#e.y#b.Y#b.8#e.U.U.U#e.#.8#b.d.Y.d.Y.Y#b.8#b#b.Y.6.d.6.E.n.Q.9.b.l.l#a#f#f.O.Z.q.Z.Z.Z.e#g#g.s.P",
"#d#d.S#h.S.S.F.F.F.K.1.D.D.D.D.w.U#e#e.y.Y#b#b.8#e#e.##e#e.L#b.Y.Y.d.Y.Y#b.Y#b.Y#b.Y.3.6.6.Q.W.Q.W.u.l.l.J#f#a.O.J.Z.Z.e#g.P#g.s",
"#d#d#d#d.2#h#h.F.F.F.K.F.K.1.D.D.D.w.U.U#e.8.N#b#b.L#e#e.U#e#e.8#b.Y.d.6.Y.d.Y.8#b#b.Y.d.3.6.6.Q.9.l.l.l#f#f.J#f.J.O.Z.Z.P.Z.P#g",
".a.a#d#d.7#d#h.o#h.S.S.F.F.K.1.1.D.D.w.w#e.j.y#b.Y#b.L.j#e#e.L#e.j#b.Y.d.3.Y.d.Y.Y.Y.Y.Y.6.d.6.Q.E.9.9.l.l.l#f#f#f.J.Z.Z.Z.P#g.e",
"#d#d.V#d#d#d#d.2#d.2#h.F.S.F.F.K.K.D.1.D.5.w#e#e#b#b.y#b#b.L#e#e#e.8#b.Y.Y.Y.6.d.Y.d#b.d.Y.Y.3.6.6.Q.9.9.W.l.l.l#f#f.O.J.Z.Z.e#g",
"#d.7#d.7#d.7#d.7#d#h#d.S#h.F.S.F.F.v.K.1.D.D.D.w#e#e#b#b.8#b#b#e.##e.L#b#b.d.Y.6.Y.d.Y#b.Y.d.Y.d.3.n.Q.9.9.W.l.l#f#a#f.O.Z.Z.Z.P",
"##.a.7.C#h.2.7.2.7#d#h.2.o#h.S.S.v.F.1.K.K.D.D.w.U#e#e#e.Y.Y.Y#b.8#e.j.L#b#b.Y.d.6.6.6.Y.d.Y.Y.6.3.6.E.6.9.9.9.l.l.l.l#f.J.q.Z.Z",
".V.x.V.a.2.7.2#h.2.7.2.7#h#h.S#h.S.F.S.v.1.K.D.D.w.U.w#e#e.y#b.Y#b.Y.L.L.L#b#b.d.6.3.Y.6.Y.d.Y#b.Y.6.3.6.Q.9.W.u.l.l.l.J.O.Z.q.Z",
".V.a.V.I.V#d#d.7#h#h#h.2.7.C.7#h.S#h.S.F.F.F.1.1.D.D.U.w#e.U.N.Y.Y.Y#b#b#e#e.L#b.Y.6.6.3.6.Y.6.d.Y.6.3.6.3.E.Q.W.9.l.l.l#f#a.O.Z",
"#d.V.a.V##.V.a#d.2#h.S.F#h#h.S.S.7.S.S#h.F.v.F.K.1.D.D.D.w.U#e#e#b.Y#b.Y.8#b.N.L#b.Y.3.6.6.3.6.Y.d.Y.Y.Y.3.6.k.Q.9.b.u#f#f.O.J.q",
"#h#d.7#d#d.a.V.V.a#d#h#h.S.S.S#h.S.S#h.S.F.F.F.F.F.K.D.D.5.w.U#e#e#e#b.Y#b#b.8.y.L#b.Y.d.6.6.6.6.6.Y.6.d.6.3.6.6.Q.W.b.l.l#f#f#a",
".S.F#h#h#h#d#d.a.V.a#d#d.S.F.S.F.S#h.S#h.S.F.F.v.F.K.K.1.K.5.w.U#e#e.j.y.Y#b#b.N.8#b.L#b.3.6.3.6.6.3.6.Y.d.d.6.6.Q.E.W.b.4.l.O#f",
".S#h.F.S.F.F#h.2#d#d.a#d.7.7#h.v.F.v.F.S#h.F.S.F.F.F.1.F.K.1.D.D.U.w#e#e.y.N.Y#b#b.8#b#b.Y.Y.6.3.E.6.Y.6.Y.6.3.3.6.n.Q.Q.9.4.l#f",
"#d#d.2.2.F.S.S.F#h#h#d#d.V.a.7.S.F.v.F.v.F#h.F#h.F.F.F.K.1.K.1.D.D.w#e#e#e#b.y#b#b.8.j.8#b.Y.3.6.E.6.6.3.Y.d.6.d.6.6.Q.Q.Q.9.l.l",
".r.t.a#d.C#h.F.F.F.F#h.S.a#d#d.7#d.S.v.1.v.F.F.F.F.F.S.F.F.F.K.K.D.D.D.w#e#e#e#b.Y.Y#b#b.L#b#b.d.6.3.E.E.6.6.Y.Y.6.3.6.6.Q.W.W.b",
"#c.t.r.h###d#d.o.S.S.F.F.o.o#d.a.a.7#h.F.K.F.v.F.F.F.v.F.F.K.0.K.1.D.w.M.w.U#e.L#b#b#b#b#b.8#b.d.3.6.3.6.E.3.6.d.6.3.6.6.Q.Q.Q.b",
".A.R.R#c.r.t##.a#d.o.S.F.F.S.S#h#d#d#d.7.F.0.K.1.v.F.F.F.v.F.F.1.K.D.D.D.w.5.w.U#e#b#b#b.d#b.8#b#b.3.3.3.E.E.6.3.6.d.6.d.6.6.W.9"
};
