/* XPM */
static char *hubble_tile[] = {
/* width height num_colors chars_per_pixel */
"    64    64       66            2",
/* colors */
".. c #040204",
".# c #64829c",
".a c #2c425c",
".b c #4c627c",
".c c #54728c",
".d c #3c526c",
".e c #64728c",
".f c #4c6a84",
".g c #344a5c",
".h c #445a74",
".i c #fcfefc",
".j c #748aac",
".k c #54667c",
".l c #5c7a9c",
".m c #5c6e84",
".n c #3c4a64",
".o c #6c8aac",
".p c #5c728c",
".q c #647a9c",
".r c #6c829c",
".s c #44566c",
".t c #546a84",
".u c #4c5e74",
".v c #34425c",
".w c #4c668c",
".x c #344a6c",
".y c #5c769c",
".z c #546e94",
".A c #4c667c",
".B c #3c566c",
".C c #445e74",
".D c #6c7e9c",
".E c #6c86ac",
".F c #546e84",
".G c #344e64",
".H c #6c7a94",
".I c #54668c",
".J c #3c4e64",
".K c #647e9c",
".L c #6c86a4",
".M c #34465c",
".N c #6482a4",
".O c #2c465c",
".P c #4c6284",
".Q c #547294",
".R c #3c5274",
".S c #64768c",
".T c #344a64",
".U c #445a7c",
".V c #647a94",
".W c #546684",
".X c #5c6e8c",
".Y c #5c7294",
".Z c #6c82a4",
".0 c #445674",
".1 c #546a8c",
".2 c #4c5e7c",
".3 c #344e6c",
".4 c #4c6684",
".5 c #3c5674",
".6 c #445e7c",
".7 c #5c7694",
".8 c #546e8c",
".9 c #3c4e6c",
"#. c #647ea4",
"## c #344664",
/* pixels */
".i.i.i.i.i.i.i.i.i.i.i.i.i.i.i.i.i.i.i.i.i.i.i.i.i.i.i.i.i.i.i.i.i.i.i.i.i.i.i.i.i.i.i.i.i.i.i.i.i.i.i.i.i.i.i.i.i.i.i.i.i.i.i.i",
".i.i.i.i.i.i.i.i.i.i.i.i.i.i.i.i.i.i.i.i.i.i.i.i.i.i.i.i.i.i.i.i.i.i.i.i.i.i.i.i.i.i.i.i.i.i.i.i.i.i.i.i.i.i.i.i.i.i.i.i.i.i.i..",
".i.i.h.9.s.R.d.9.d.9.9.9.9.9.9.9.9.9.9.9.9.9.G.9.T.9.T.T.n.x.T.T.T.T.T.T.T.T.T.T.T.M.T##.g##.M##.M.M.v.v.a.v.a.v.v.a.v.v.a.v....",
".i.i.d.d.s.d.s.d.d.d.d.G.9.G.9.G.9.G.9.G.G.3.J.x.J.x.n.G.x.G.T.n.T.T####.T.T.M.M.T.M.O##.O.O.T.O.O.a.M##.v.O.a.v.a.v.a.v.a.a....",
".i.i.9.d.d.9.d.d.d.s.B.d.G.d.9.G.9.G.9.G.n.9.G.9.T.G.x.J.T.n.x.T.T.T.T##.g.M.T.O.T.M.O.T.O.O##.M####.M.M.a.v.a.v.a.v.a.a.v.a....",
".i.i.3.9.9.d.J.d.d.d.d.d.B.d.d.d.d.J.9.J.3.G.J.G.J.9.J.9.T.T.T.n.T.T##.M####.M##.O.M.T.M##.T.M##.O.M.M##.M.a.a.a.v.a.a.a.a.a....",
".i.i.T.T.T.G.9.G.J.d.d.d.d.d.d.d.d.G.d.G.T.G.T.G.n.3.J.9.T.n.T.T.T.T.M##.O.g.O##.M##.O##.g.M.O##.M##.a.O.v.O.v.M.a.a.v.a.a.a....",
".i.i####.T##.T.T.G.g.G.J.G.J.J.d.d.d.G.J.T.n.T.T.T.n.J.J.T.T.T.g.n.T.T.g##.T.M##.O##.M.M####.M##.M.O##.M.a##.O.v.a.v.a.a.v.a....",
".i.i##.O######.g.T.T.g.g.T.T.G.g.J.T.J.J.J.n.n.T.n.T.n.T.n.G.n.T.T.g.n.T.T.T.T.g##.g####.O.T.M.O##.M.M.O##.M.M.O.M.a.v.a.a.a....",
".i.i.T.T##.T.T.O.g.M.T.M.T.M.M##.g.n.T.x.n.J.n.n.J.n.T.n.T.n.T.g.T.T.T.T.T.n.T.n.T.T.g.T##.g##.M##.O##.M##.O.M##.v.M.O.v.v.a....",
".i.i.T.T.T.T##.T####.O.M.M.M.O.M##.M.T.T.n.T.n.3.J.9.G.n.T.T.T.n##.g.n.M.T.T.n.T.T.n.T.T.T.T##.T.M##.M.O##.M##.O.M.O.v.O.M.a....",
".i.i.T##.T.T.T.M.T.M.T.M########.O##.M.M.T##.T.n.G.G.J.G.J.J.T.T.n.T.T.T.n.T.T.T.n.T.T.T.n.T.g.T.g.T##.M##.O.M##.O.v.M.a.M.a....",
".i.i.T.T.T##.T.T.M.T##.g.T.g##.M##.M.O##.M.M##.T.T.J.T.G.J.G.J.J.T.n.T.n.g.T.g.n.G.T.n.T.g.T.n##.T.M.T.M##.M##.M##.O.a.M.a.M....",
".i.i.n.T.T.T.T.T.T.T.T##.T.g.T.O.T.O##.M.O.O.O.g.g.T.T.T.n.T.n.3.J.G.J.G.T.n.T.T##.g.T.T.n.T.T.T.T.T.T.T##.M##.O.M##.M##.M.a....",
".i.i.x.T.n.T.T.T.T.T##.T.T.T.g.T.g.T.g.O##.M.T.O##.g.T.g.T.T.n.G.n.9.J.n.G.n.T.T.n.T##.g.T.T.n.T.n.g##.g.M##.M##.M.O##.M.O.M....",
".i.i.n.3.T.x.n.x.n.T.T.T.T.T.T.T.T.T.T.T.T.O.M.T.O.M.O.O##.T.T.T.T.J.G.9.G.J.G.n.T.T.T.n.g.T.g.T.g.T.T.T##.T.T.M####.O.M##.a....",
".i.i.3.n.T.G.T.G.x.T.n.T.T.T.T.g.T.g.T.g##.T.T.M.O##.O.M.M.M##.M.T.T.n.T.n.T.J.J.G.n.T.T.M####.T##.T.n.g.T.g.T##.g.M##.M.O.M....",
".i.i.T.9.T.9.T.9.n.G.x.G.T.T.T.T.T.T.O##.T.T.O.T.T.M##.O.v.O.M.M##.M##.T.T.n.3.n.J.G.n.n.T.T.g.T.g.T.g.T##.T.T.M.T##.M####.O....",
".i.i.d.9.G.9.3.J.x.J.T.n.T.G.T.T.T.T.x.T.T.T.T##.T.O.T.T##.M.O##.O.M.M.M.T.T.T.T.J.9.G.T.J.n.T.n##.M##.M.T.T.M.T##.g.O.T.M.M....",
".i.i.d.d.9.d.9.9.9.G.9.3.3.n.x.n.x.T.T.T.T##.T.T.T.T.g.T.O####.M.M.O##.O.M##.M.T.T.T.T.n.G.n.T##.g.T##.M.T.M.T##.g##.T####.O....",
".i.i.d.d.d.d.d.d.3.9.G.n.G.n.3.T.n.T.n.x.T.T.T####.T.g##.g.T.M.O####.M##.O.M##.g.T.n.T.T.n.G.T.T.T.g.T.T.M##.M.M.T##.g##.M##....",
".i.i.h.h.0.0.B.d.d.d.9.9.9.9.3.9.3.x.x.T.T.T##.T##.T.O##.T.T.O.M##.g.O.M##.O.M.O.M##.g.T.T.T.n.J.n.n.T.M.T.g.T.O.M.M##.T.T.M....",
".i.i.2.h.h.h.0.0.0.B.d.d.d.d.9.G.n.J.G.n.x.T.T.T.T.T.T.T.T.g.T.T.O.T##.g.O##.O##.M.M##.M##.g.T.T.G.T.T.n.T##.M####.g##.T.M.T....",
".i.i.b.2.b.b.6.u.h.h.h.h.0.d.d.d.d.9.9.3.J.T.T.T.T.T.T.T.T.T.g.T.T.T.O.T.T.M##.M.a.O.v.O.M##.M.T.n.T.n.T.T.g##.g##.O.M.O##.M....",
".i.i.W.k.A.k.b.b.b.2.2.C.h.h.0.R.d.d.d.9.3.9.T.x.n.x.T.T.T.T.T.M.T.M.T.M.O.T.O.O##.a.M.a.M.a.M##.M.T.T.n.G.n.T.g##.M##.M##.O....",
".i.i.A.W.W.P.k.P.W.A.b.b.2.6.u.h.h.5.d.d.J.9.9.J.G.T.T.T.T.g.T.T.g.T.O.T.T.M.T.M##.M.O##.O.v.O.v.O##.g.T.n.T.T.T.T##.g##.O.M....",
".i.i.W.k.4.W.W.W.k.W.4.k.b.b.b.u.u.h.h.s.5.d.d.3.9.9.T.n.T.T.T####.T##.O.T.T.O.T.M##.M##.a##.a.M.a.M.M##.g.T.T.n.T.g##.g##.M....",
".i.i.m.m.t.t.t.f.t.t.W.W.t.W.k.A.b.b.C.h.h.5.s.d.d.d.3.9.T.x.T.T.T.T.T##.T.g.T.T.M##.O.M##.M.O.M.a.M.a.O##.M.T.g.T.T.T.g##.O....",
".i.i.V.S.X.F.t.t.W.t.t.t.t.t.A.k.A.k.b.b.u.h.0.0.d.d.9.d.G.J.3.T.T.T.T.T.g##.g.O.T.M.O##.O.M##.a.v.a.M.v.a.a##.M.T.n.g.T.T.M....",
".i.i.S.l.H.S.e.m.t.k.t.t.k.t.t.t.W.k.b.b.b.b.C.h.h.s.s.B.9.9.x.n.T.T.T.T.T.T.T.T####.M##.M.a.M##.O.v.O.a.M.a.M.M.T.M.T##.n##....",
".i.i.p.F.e.p.S.S.p.p.t.t.t.t.t.k.f.k.A.k.b.b.b.u.C.h.B.s.d.d.9.G.9.T.T.T.T.T.g.T.O.T.T.M##.M.O.M.a##.a##.a.M.a##.M##.g.T.M.T....",
".i.i.8.F.t.8.X.p.e.p.p.m.t.t.t.t.k.W.W.A.k.b.b.b.u.C.h.h.0.d.d.d.9.9.3.n.G.T.T.g.T.T.g##.O####.O.M.M.a.M.a.M.a.a.v.O##.M.n.M....",
".i.i.X.8.8.1.t.1.t.X.X.p.m.t.t.W.W.A.W.A.W.b.A.b.b.2.C.h.h.0.B.d.d.9.J.3.J.T.T.T.T.g##.M.T.M.M##.a##.a.M.a.M.a.M.a.M.O##.v##....",
".i.i.Q.X.X.8.X.8.X.1.X.t.8.X.t.t.W.W.P.W.4.k.b.b.b.b.2.h.h.h.0.0.d.d.d.9.J.9.T.T.T##.T##.T.M##.M##.O.M##.O.v.O.v.O.a.v.a.O.v....",
".i.i.8.1.8.8.z.8.8.1.1.1.X.t.8.t.f.f.W.4.k.b.P.b.b.2.u.6.u.h.h.0.B.5.d.9.3.9.G.n.G.T.T##.g##.T.M.M##.a.M.a##.M.O.v.M.a.a.v.v....",
".i.i.X.X.8.1.1.t.I.8.X.c.1.1.1.1.t.1.t.t.4.W.b.k.b.b.b.2.6.2.h.h.0.0.d.d.d.d.3.9.x.n.T.T.T.g.T.O##.M##.O##.M.a##.a.M.a.M.v.a....",
".i.i.Y.Y.X.p.8.8.1.t.f.1.8.8.1.8.1.t.w.W.W.W.4.W.b.P.b.b.2.u.6.h.h.0.s.5.d.d.9.J.G.9.T.n##.T##.g##.M.M.M##.O##.v.O.v.O##.a.v....",
".i.i.Y.p.7.Y.X.8.1.1.1.t.1.t.1.t.1.1.t.1.1.f.W.P.4.P.P.b.b.2.u.U.h.h.0.0.s.d.d.9.9.9.3.J.G.T.T.g.T.T.O##.O.v.O.v.O.v.O.v.v.a....",
".i.i.Y.Y.7.Y.7.Y.p.8.8.1.1.f.1.4.t.f.1.1.f.1.1.4.W.4.A.P.b.6.2.6.h.h.h.0.B.R.d.d.d.J.3.n.G.n.T.T.g.O.T.M.O##.M.O.v.O.v.O.v.v....",
".i.i.1.8.8.X.p.7.Y.Y.Y.X.8.1.t.I.t.w.W.f.I.t.1.t.1.W.4.P.P.P.2.2.2.U.h.h.h.0.s.d.d.9.9.3.J.G.G.T.T.T.T.T.M##.a.M##.a##.a.M.v....",
".i.i.w.4.I.f.1.8.p.Y.p.Y.c.X.8.8.1.t.4.4.W.w.f.1.f.W.4.W.4.b.P.6.b.C.6.h.h.0.B.5.d.d.d.9.G.J.T.G.T.T.g.T.O##.M##.O.M.M.a##.v....",
".i.i.I.w.4.W.4.I.1.8.8.z.p.Y.Y.X.8.1.1.4.4.W.4.4.W.4.1.f.W.4.4.4.b.2.6.C.h.h.5.0.B.d.d.d.9.9.3.n.T.T.T##.g.T##.M##.v.O.M.v.a....",
".i.i.8.1.1.4.4.4.4.4.1.1.8.8.8.Y.8.8.1.1.W.4.4.P.4.4.I.W.1.4.W.4.P.A.6.6.6.C.h.5.0.5.B.5.d.G.9.G.n.x.T.T.T##.g##.O####.O.v.v....",
".i.i.z.z.8.8.1.t.w.4.4.4.W.t.1.8.z.X.X.8.F.1.W.W.P.P.4.4.4.I.4.W.4.P.4.b.2.6.6.C.5.h.5.d.d.d.d.9.9.3.J.T.T.T.T.g##.M.a##.M.a....",
".i.i.7.7.z.X.z.z.8.1.w.4.4.4.W.1.8.8.8.8.p.8.1.4.4.P.P.P.W.4.4.f.W.f.4.A.P.b.6.6.h.h.5.5.s.d.d.9.G.9.G.9.T.T.T##.g##.M.O##.M....",
".i.i.q.y.7.7.Y.Y.X.z.8.1.1.I.4.P.P.1.1.z.8.X.8.8.t.t.4.A.P.P.W.4.4.4.W.4.4.b.P.2.6.U.U.0.5.5.d.d.d.9.9.J.J.n.g.T.M.T.M.M##.M....",
".i.i.q.q.y.y.7.Y.Y.Y.z.z.8.1.f.w.4.w.I.4.8.8.X.c.X.8.t.4.4.P.P.P.P.P.4.W.4.4.P.b.6.6.U.h.5.0.B.d.d.d.G.9.G.T.n.T.T.T.M##.M.O....",
".i.i#..q.q.q.q.l.y.7.Y.Y.Q.X.z.1.1.w.4.P.4.W.1.8.8.8.t.8.W.4.b.P.b.P.P.4.W.P.4.P.P.2.6.6.U.h.5.B.d.d.d.9.9.9.G.n.T.T.T.O##.M....",
".i.i.Z.K#..q.q.q.q.y.7.Y.Y.Y.Y.z.8.1.1.w.P.4.4.W.1.1.1.8.t.1.4.P.P.b.P.P.4.4.P.4.P.P.b.6.6.h.h.5.0.d.d.9.G.9.G.9.G.n.T.g.T.M....",
".i.i.Z.Z.D.K#..q.q.q.y.q.y.y.Y.Y.Y.z.8.8.1.W.I.4.4.t.t.8.1.1.1.t.4.P.b.2.P.b.P.b.4.4.P.2.6.6.6.h.0.B.d.d.d.9.J.3.J.G.T.T##.O....",
".i.i.E.Z.N.Z.N#..K.K.K.q.q.y.7.y.Y.Y.X.z.1.f.w.4.P.4.w.t.1.F.1.t.w.4.P.6.b.P.P.P.4.P.P.b.P.6.6.h.U.0.0.d.d.d.9.9.G.9.G.g.T.T....",
".i.i.Z.Z.Z.Z.D.Z.Z.D#..q.K.q.q.7.y.Y.y.Y.X.z.1.1.w.4.4.4.W.w.t.1.1.t.4.P.P.6.b.b.P.A.P.P.P.b.b.6.U.h.h.0.R.R.d.d.9.J.3.J.T.M....",
".i.i.Z.N.Z.N.Z.N.D.N.D#.#..q.K.q.q.l.7.y.Y.Y.Y.8.1.1.4.4.4.4.W.1.t.1.t.4.4.P.2.6.P.2.P.4.P.P.b.b.2.6.0.h.0.B.R.d.9.d.9.G.T.T....",
".i.i.Z.r#..Z#..Z.N.Z.N.D.N.K#..K.l.q.y.7.y.Y.Y.z.z.1.1.1.4.P.P.4.f.1.f.t.W.4.4.b.6.6.6.P.b.P.P.6.2.6.6.U.0.0.s.d.d.G.d.J.J.T....",
".i.i.E.L.Z#..D#..D#..Z.N#..K#..K.K.q.K.l.y.7.Y.Y.8.z.8.1.1.w.4.P.P.W.t.f.t.4.4.P.2.6.b.b.6.4.P.P.P.6.2.6.h.h.5.0.d.d.d.J.3.n....",
".i.i.j.o.L.Z.N.D#.#..K#..Z.#.Z#..K#..K.q.q.q.y.7.Y.Y.z.z.1.1.I.4.P.P.4.I.t.1.t.4.P.2.6.6.P.b.6.b.P.6.2.6.2.U.h.0.0.d.d.d.9.G....",
".i.i.E.L.j.E.L.Z.Z#..q.K#..K#..K.N.K.K.K.q.l.q.y.7.Y.Y.Y.z.8.1.I.4.4.P.4.4.W.w.t.4.P.6.6.6.6.2.6.P.b.P.P.6.2.h.h.h.0.d.d.9.J....",
".i.i.N.Z.L.L.E.E.Z.Z.D.q.K.K.K.K.K#..K#..q.q.q.q.q.y.7.Y.X.z.1.8.1.t.4.P.P.4.4.t.I.4.P.b.2.6.6.b.6.P.6.b.b.b.6.U.h.5.B.d.9.3....",
".i.i.D#.#..D.Z.L.E.E.Z.Z#..q#..q.K.K#..K.K.q.q.l.q.y.7.y.7.Y.8.1.8.1.f.w.4.I.P.I.f.W.4.4.6.2.6.U.6.2.P.6.P.6.2.6.C.h.5.B.5.d....",
".i.i#..q.q.K#..Z.Z.Z.E.Z.N.N.K.q.l.K.l.K#..q.K.q.q.q.y.q.y.Y.Y.Y.z.z.1.1.I.P.4.4.W.4.t.W.P.P.6.2.6.6.6.b.P.6.b.6.6.6.h.h.0.d....",
".i.i.D.D#..q.K.q.K#..Z.Z.L.L.N.K.q.l.q.l.q#..q.K.q.q.q.7.7.y.y.7.Y.8.1.1.f.I.w.P.4.4.4.4.4.P.2.6.U.6.2.6.P.b.6.b.6.6.h.h.0.0....",
".i.i.L.Z.Z.K.q.q.q.K.K#..L.N.Z.Z.N.K.l.y.l.q.q.q.q.q.K.q.q.q.y.7.Y.Q.Y.z.1.1.1.4.4.P.4.4.t.4.4.b.U.2.U.U.6.2.P.6.2.2.6.6.5.5....",
".i..............................................................................................................................",
"................................................................................................................................"
};
