/* XPM */
static char * as1_5iconizep22_xpm[] = {
"24 20 5 1",
" 	c None",
".	c #000000",
"+	c #212121",
"@	c #575757",
"#	c #FFFFFF",
" .                      ",
"+.@                     ",
"+.@                     ",
"+.@                     ",
"+.@                     ",
"+.@                     ",
"+.@                     ",
"+.@                     ",
"+.@                     ",
"+.@                     ",
"+.@    ######           ",
"+.@    ######           ",
"+.@    #    #           ",
"+.@    #    #           ",
"+.@    #    #           ",
"+.@    ######           ",
"+.@                     ",
"+.@                     ",
"+.@                     ",
"+.@                     "};
