/* XPM */
static char * as1_5_iconize_p2_xpm[] = {
"24 20 5 1",
" 	c None",
".	c #000000",
"+	c #212121",
"@	c #575757",
"#	c #FFFFFF",
"                      . ",
"                     +.@",
"                     +.@",
"                     +.@",
"                     +.@",
"     #               +.@",
"     ##              +.@",
"     ###             +.@",
"     ####            +.@",
"     #####           +.@",
"     ######          +.@",
"     #######         +.@",
"     ########        +.@",
"     #########       +.@",
"     ##########      +.@",
"     ###########     +.@",
"                     +.@",
"                     +.@",
"                     +.@",
"                     +.@"};
